<?xml version="1.0" standalone="no"?>
<!DOCTYPE svg PUBLIC "-//W3C//DTD SVG 20010904//EN"
 "http://www.w3.org/TR/2001/REC-SVG-20010904/DTD/svg10.dtd">
<svg version="1.0" xmlns="http://www.w3.org/2000/svg"
 width="1201.000000pt" height="1201.000000pt" viewBox="0 0 1201.000000 1201.000000"
 preserveAspectRatio="xMidYMid meet">
<metadata>
Created by potrace 1.11, written by Peter Selinger 2001-2013
</metadata>
<g transform="translate(0.000000,1201.000000) scale(0.100000,-0.100000)"
fill="#000000" stroke="none">
<path d="M5685 11375 c-165 -96 -338 -196 -385 -224 -255 -148 -460 -267 -500
-289 -25 -14 -88 -50 -140 -80 -52 -30 -108 -63 -125 -72 -16 -9 -171 -99
-344 -199 -173 -100 -332 -192 -355 -205 -23 -13 -167 -97 -321 -186 -154 -89
-298 -172 -320 -185 -22 -12 -112 -64 -200 -115 -88 -51 -180 -104 -204 -118
-25 -14 -68 -38 -95 -55 -28 -16 -76 -43 -106 -60 -30 -16 -62 -36 -71 -43 -8
-8 -19 -14 -22 -14 -4 0 -28 -13 -54 -29 -27 -15 -172 -99 -323 -186 -374
-216 -759 -438 -851 -492 l-77 -45 0 -2774 0 -2775 39 -25 c21 -13 41 -24 44
-24 4 0 26 -13 50 -30 24 -17 46 -30 49 -30 4 0 36 -18 72 -40 36 -22 68 -40
70 -40 3 0 21 -11 42 -23 20 -13 204 -120 407 -237 204 -117 413 -238 465
-268 81 -47 236 -136 740 -427 82 -47 78 -45 277 -160 76 -44 147 -85 158 -91
11 -5 31 -17 45 -26 21 -13 807 -467 910 -526 19 -11 76 -43 125 -72 50 -29
106 -62 125 -72 19 -11 80 -46 135 -78 55 -32 116 -67 135 -78 19 -11 123 -70
230 -133 107 -62 211 -122 232 -133 20 -12 74 -43 120 -70 45 -26 108 -62 138
-79 30 -16 67 -38 82 -49 14 -10 29 -18 32 -18 4 0 24 -11 47 -25 l40 -26 192
112 c106 62 212 123 237 137 25 14 62 36 82 49 21 12 40 23 43 23 3 0 18 8 33
19 15 10 65 40 111 66 92 52 113 64 211 120 36 21 83 48 105 60 22 13 108 62
190 110 83 48 166 97 185 108 38 21 348 200 585 337 83 47 169 99 192 113 24
15 45 27 48 27 3 0 70 37 148 83 78 46 205 120 282 164 77 45 250 145 385 223
135 78 268 155 295 170 28 15 133 76 235 135 102 59 205 119 230 133 25 14
108 62 185 107 77 45 296 171 487 281 l347 199 1 2777 0 2776 -117 69 c-65 37
-127 73 -138 80 -11 7 -27 15 -35 20 -8 4 -78 44 -155 88 -131 77 -473 275
-576 334 -25 14 -127 73 -227 131 -100 58 -190 110 -200 115 -9 6 -53 31 -97
56 -44 26 -97 56 -117 68 -61 34 -97 55 -193 111 -49 29 -106 61 -125 72 -110
63 -517 298 -585 338 -44 25 -143 83 -220 127 -77 44 -284 164 -460 266 -176
102 -336 194 -355 204 -47 27 -476 275 -520 302 -19 11 -42 24 -50 28 -8 4
-59 33 -113 65 -54 32 -101 58 -103 58 -2 0 -21 11 -42 24 -71 46 -227 134
-233 133 -4 -1 -15 5 -25 14 -29 24 -111 69 -126 68 -7 0 -148 -79 -313 -174z"/>
</g>
</svg>
